<svg xmlns="http://www.w3.org/2000/svg" viewBox="0 0 512 512" width="512" height="512">
  <defs>
    <linearGradient id="bg-grad" x1="0%" y1="0%" x2="100%" y2="100%">
      <stop offset="0%" style="stop-color:#2d3748;stop-opacity:1" />
      <stop offset="100%" style="stop-color:#1a202c;stop-opacity:1" />
    </linearGradient>
    <linearGradient id="doc-grad" x1="0%" y1="0%" x2="100%" y2="100%">
      <stop offset="0%" style="stop-color:#9f7aea;stop-opacity:1" />
      <stop offset="100%" style="stop-color:#6b46c1;stop-opacity:1" />
    </linearGradient>
    <filter id="glow" x="-20%" y="-20%" width="140%" height="140%">
      <feGaussianBlur stdDeviation="10" result="blur" />
      <feComposite in="SourceGraphic" in2="blur" operator="over" />
    </filter>
  </defs>

  <rect x="32" y="32" width="448" height="448" rx="100" ry="100" fill="url(#bg-grad)" stroke="#4a5568" stroke-width="8"/>

  <path d="M160 120 L280 120 L360 200 L360 392 A 24 24 0 0 1 336 416 L160 416 A 24 24 0 0 1 136 392 L136 144 A 24 24 0 0 1 160 120 Z" 
        fill="#cbd5e0" opacity="0.1"/>
  
  <path d="M280 120 L280 200 L360 200" fill="none" stroke="#4a5568" stroke-width="4" opacity="0.5"/>

  <g stroke="url(#doc-grad)" stroke-width="8" stroke-linecap="round">
    <line x1="200" y1="200" x2="300" y2="250" />
    <line x1="300" y1="250" x2="250" y2="350" />
    <line x1="200" y1="200" x2="250" y2="350" />
    <line x1="200" y1="200" x2="180" y2="300" />
    <line x1="180" y1="300" x2="250" y2="350" />
  </g>

  <g fill="#d6bcfa" filter="url(#glow)">
    <circle cx="200" cy="200" r="18" />
    <circle cx="300" cy="250" r="18" />
    <circle cx="250" cy="350" r="24" /> <circle cx="180" cy="300" r="14" />
  </g>
  
  <line x1="210" y1="160" x2="300" y2="160" stroke="#718096" stroke-width="6" stroke-linecap="round" opacity="0.3"/>
</svg>